<svg width="320" height="316" viewBox="0 0 320 316" fill="none" xmlns="http://www.w3.org/2000/svg">
<path d="M215.995 151.183L232.575 162.643C250.695 175.163 267.505 189.313 284.295 203.523C294.055 211.783 304.065 219.733 313.865 227.953C315.817 229.64 317.502 231.613 318.865 233.803C319.975 235.543 318.955 237.193 316.725 237.143C295.345 236.693 273.975 236.143 252.595 235.833C236.595 235.623 220.595 235.763 204.595 235.783C201.188 235.838 197.85 234.828 195.045 232.893C187.185 227.583 179.115 222.573 171.205 217.313C169.495 216.183 168.725 216.543 167.625 218.063C160.245 228.273 153.125 238.693 145.235 248.483C138.035 257.413 129.705 265.423 122.335 274.233C111.335 287.333 100.865 300.803 90.1048 314.073C87.8148 316.543 83.8548 314.813 83.7748 312.333C83.4014 301.667 83.2081 291 83.1948 280.333C83.1948 261.563 83.3548 242.803 83.3948 224.033C83.3948 217.033 82.9848 210.033 83.3048 203.033C83.5826 200.273 84.5526 197.628 86.1248 195.343C91.3248 187.343 96.8348 179.453 102.205 171.513C102.525 171.043 102.715 170.513 103.515 168.963C98.1848 165.463 92.8148 162.023 87.5148 158.443C74.1648 149.443 62.1448 138.723 49.9648 128.183C36.3348 116.303 21.7848 105.373 7.5448 94.0632C5.4348 92.3832 3.21479 90.8332 1.19479 89.0632C-0.825211 87.2932 -0.145211 84.6932 2.19479 84.1232C5.27305 83.2608 8.44855 82.7937 11.6448 82.7332C24.7248 82.6132 37.8048 82.7932 50.8848 82.7332C69.5648 82.6732 88.2348 82.5133 106.885 82.4133C109.885 82.4133 112.885 82.5733 115.885 82.5433C119.825 82.5433 122.985 84.4133 126.035 86.5433C132.955 91.2933 139.835 96.1033 146.715 100.913C150.255 103.383 150.305 103.463 152.955 99.9133C157.165 94.2033 161.115 88.2932 165.455 82.6832C172.835 73.1232 180.295 63.6232 187.975 54.3032C199.155 40.7332 210.565 27.3532 221.855 13.8732C225.515 9.50325 229.005 5.00326 232.735 0.693256C234.605 -0.976744 237.405 0.693241 237.385 2.30324C237.285 12.3032 236.875 22.3033 236.785 32.2533C236.645 48.2533 236.645 64.2532 236.635 80.1832C236.635 92.7632 236.755 105.353 236.635 117.933C236.516 119.91 235.863 121.818 234.745 123.453C228.725 132.493 222.565 141.473 215.995 151.183ZM174.365 155.483C172.955 151.043 169.865 146.483 163.615 144.673C158.765 142.733 151.355 144.463 147.175 149.673C143.955 153.753 143.725 161.383 146.595 166.373C150.535 173.233 157.595 174.773 163.195 173.663C169.675 172.373 176.275 165.703 174.365 155.483V155.483Z" fill="white"/>
</svg>
